<?xml version="1.0" encoding="utf-8"?>
<!-- Generator: Adobe Adobe Illustrator 24.2.0, SVG Export Plug-In . SVG Version: 6.00 Build 0)  -->
<svg version="1.1" id="Layer_1" xmlns="http://www.w3.org/2000/svg" xmlns:xlink="http://www.w3.org/1999/xlink" x="0px" y="0px"
	 viewBox="0 0 640 480" style="enable-background:new 0 0 640 480;" xml:space="preserve">
<style type="text/css">
	.st0{fill:#F5D683;}
	.st1{fill:none;}
	.st2{font-family:'AWConquerorStdDidot-Bold';}
	.st3{font-size:51.1417px;}
</style>
<g>
	<path class="st0" d="M174.23,258.85c16.14-17.35,33.12-24.42,49.57-23.05s24.02,9.39,40.33,11.96c16.31,2.58,33.86,2.52,48.29-5.49
		c14.44-8.02,24.33-25.92,18.83-41.5c-6.11-17.31-28.96-21.27-41-7.42c-16.38,18.83-35.92,24.98-60.8,12.11
		c-10.36-5.36-33.54-11.25-44.19-6.5c-19.96,8.9-30.52,27.55-39.29,46.27c-4.02,8.58-3.52,19.05,5.59,21.68
		C162.7,270.13,176.35,257.29,174.23,258.85z"/>
	<g>
		<path d="M124.77,237.71v-0.68l1.47-0.06c3.01-0.11,2.72-1.59,0.06-8.68l-2.1-5.5H111.5L110.7,225c-0.91,2.38-1.31,4.71-1.31,6.98
			c0,2.72,0.96,4.88,3.57,4.99l1.19,0.06v0.68H101.4v-0.68l0.62-0.06c2.27-0.17,3.69-1.19,7.83-12.2l9.7-25.64h3.63l11.74,28.76
			c3.29,8.11,4.03,8.79,6.24,9.08l0.45,0.06v0.68H124.77z M111.78,222.11h12.14l-6.13-16.22L111.78,222.11z"/>
		<path d="M160.9,237.71v-0.68l1.19-0.06c2.5-0.11,3.06-0.79,3.06-8.57v-19.63c0-7.77-0.57-8.45-3.06-8.57l-1.19-0.06v-0.68h19.51
			c8.68,0,14.18,2.84,14.18,9.13c0,5.9-5.9,8.51-12.93,9.36c7.32,0.51,15.03,3.01,15.03,10.21c0,6.81-6.18,9.53-16.45,9.53H160.9z
			 M179.22,200.21h-3.18c-2.38,0-2.72,0.91-2.72,8.57v8.96h5.39c4.2,0,7.09-2.95,7.09-9.13
			C185.8,202.71,182.96,200.21,179.22,200.21z M178.77,218.42h-5.45v9.98c0,7.66,0.34,8.57,2.72,8.57h3.12
			c5.45,0,8.74-2.55,8.74-9.19C187.9,221.94,185.01,218.42,178.77,218.42z"/>
		<path d="M202.64,237.71v-0.68l1.13-0.06c1.87-0.06,2.33-0.23,2.33-7.54v-21.67c0-7.32-0.45-7.49-2.33-7.54l-1.13-0.06v-0.68h11.01
			v29.95c0,7.32,0.51,7.49,2.38,7.54l1.13,0.06v0.68H202.64z"/>
		<path d="M239.63,237.71v-3.63c-1.25,2.21-3.52,4.31-8.4,4.31c-5.5,0-9.59-2.84-9.59-7.49c0-4.99,3.97-7.49,10.61-7.49
			c3.18,0,5.11,0.4,7.26,1.36v-7.09c0-3.97-1.82-6.13-5.5-6.13c-2.5,0-3.57,0.62-3.57,1.53c0,1.02,1.31,1.64,1.31,3.63
			c0,1.93-1.59,3.46-3.91,3.46c-2.61,0-4.14-1.53-4.14-3.52c0-3.4,3.8-5.84,10.55-5.84c6.41,0,12.82,2.72,12.82,9.3v9.3
			c0,7.32,0.45,7.49,2.33,7.54l1.14,0.06v0.68H239.63z M234.07,236.97c2.16,0,4.37-1.64,5.45-3.91v-7.49
			c-1.53-0.74-3.06-1.19-4.99-1.19c-2.61,0-5.05,1.47-5.05,6.75C229.47,235.5,231.51,236.97,234.07,236.97z"/>
		<path d="M268.04,238.45c-9.76,0-14.69-6.41-14.69-13.78c0-8.23,5.62-13.84,14.8-13.84c6.3,0,10.27,3.06,10.27,6.69
			c0,2.33-1.7,3.91-4.2,3.91c-2.27,0-4.08-1.59-4.08-3.8c0-2.38,1.7-3.12,1.7-4.37c0-0.85-0.91-1.7-3.63-1.7
			c-5.96,0-6.69,5.33-6.69,12.71c0,6.86,1.3,12.99,7.77,12.99c4.48,0,7.77-2.16,8.96-6.58l0.74,0.17
			C277.86,235.73,274.06,238.45,268.04,238.45z"/>
		<path d="M303.21,237.71c-0.28-0.79-0.74-2.04-1.53-3.52c-0.74-1.47-2.1-3.91-2.84-5.16c-2.33-4.25-3.01-4.54-4.59-4.54h-0.51v4.94
			c0,7.32,0.51,7.49,2.38,7.54l1.14,0.06v0.68h-14.52v-0.68l1.14-0.06c1.87-0.06,2.33-0.23,2.33-7.54v-21.67
			c0-7.32-0.45-7.49-2.33-7.54l-1.14-0.06v-0.68h11.01v24.28h0.68c2.27,0,4.2-1.53,6.47-3.97l0.91-0.91
			c2.72-2.89,2.67-6.47-0.11-6.64l-0.79-0.06v-0.68h12.14v0.68l-0.79,0.06c-2.27,0.17-4.31,1.36-9.47,6.75l-0.74,0.74
			c-0.51,0.57-1.14,1.19-1.76,1.76c2.44,1.19,3.8,3.52,6.47,7.71c0.96,1.42,2.21,3.46,2.67,4.08c1.65,2.55,2.72,3.63,3.86,3.69
			l0.68,0.06v0.68H303.21z"/>
		<path d="M371.79,238.11l-10.67-30.12l-9.53,30.12h-3.69l-8.51-28.7c-2.44-8.28-3.18-8.91-5.67-9.19l-0.45-0.06v-0.68h16.79v0.68
			l-1.3,0.06c-3.12,0.11-3.12,1.7-1.08,8.74l5.79,20.19l9.42-30.07h3.69l10.44,30.24l4.48-16.73c0.57-2.21,0.97-5.11,0.97-7.26
			c0-2.95-1.14-4.99-3.86-5.11l-1.19-0.06v-0.68h12.54v0.68l-0.62,0.06c-2.55,0.23-4.03,2.04-6.92,12.59l-6.92,25.3H371.79z"/>
		<path d="M402.07,238.45c-8.96,0-14.29-6.3-14.29-13.84c0-7.6,5.33-13.78,14.29-13.78s14.3,6.24,14.3,13.84
			C416.37,232.27,411.04,238.45,402.07,238.45z M402.07,211.56c-4.94,0-6.13,4.88-6.13,13.1c0,8.06,1.19,13.05,6.13,13.05
			c4.88,0,6.07-4.88,6.07-13.05C408.14,216.55,406.95,211.56,402.07,211.56z"/>
		<path d="M456.07,237.71v-0.68l1.02-0.06c1.87-0.11,2.33-0.23,2.33-7.54v-10.38c0-4.42-1.82-6.75-4.82-6.75
			c-2.84,0-4.88,1.99-6.13,4.71c0.28,1.08,0.45,2.1,0.45,3.46v8.96c0,7.32,0.45,7.43,2.33,7.54l1.02,0.06v0.68h-14.24v-0.68
			l1.02-0.06c1.87-0.11,2.33-0.23,2.33-7.54v-10.38c0-4.42-1.82-6.75-4.82-6.75c-2.55,0-4.43,1.59-5.73,3.91v13.22
			c0,7.32,0.51,7.43,2.38,7.54l1.02,0.06v0.68h-14.41v-0.68l1.13-0.06c1.87-0.06,2.33-0.23,2.33-7.54v-9.64
			c0-7.32-0.45-7.43-2.33-7.54l-1.13-0.06v-0.68h10.89v3.69c1.31-2.27,3.69-4.37,8.06-4.37c4.14,0,7.88,1.76,9.42,5.33
			c1.42-3.12,4.03-5.33,8.62-5.33c5.39,0,10.15,2.67,10.15,9.64v8.96c0,7.32,0.51,7.49,2.33,7.54l1.14,0.06v0.68H456.07z"/>
		<path d="M492.2,237.71v-3.63c-1.25,2.21-3.52,4.31-8.4,4.31c-5.5,0-9.59-2.84-9.59-7.49c0-4.99,3.97-7.49,10.61-7.49
			c3.18,0,5.11,0.4,7.26,1.36v-7.09c0-3.97-1.82-6.13-5.5-6.13c-2.5,0-3.57,0.62-3.57,1.53c0,1.02,1.31,1.64,1.31,3.63
			c0,1.93-1.59,3.46-3.91,3.46c-2.61,0-4.14-1.53-4.14-3.52c0-3.4,3.8-5.84,10.55-5.84c6.41,0,12.82,2.72,12.82,9.3v9.3
			c0,7.32,0.45,7.49,2.33,7.54l1.14,0.06v0.68H492.2z M486.64,236.97c2.16,0,4.37-1.64,5.45-3.91v-7.49
			c-1.53-0.74-3.06-1.19-4.99-1.19c-2.61,0-5.05,1.47-5.05,6.75C482.05,235.5,484.09,236.97,486.64,236.97z"/>
		<path d="M524.14,237.71v-0.68l1.14-0.06c1.82-0.06,2.33-0.23,2.33-7.54v-10.38c0-4.25-1.76-6.69-5.11-6.69
			c-2.72,0-4.65,1.53-5.96,3.86v13.22c0,7.32,0.51,7.49,2.38,7.54l1.13,0.06v0.68h-14.52v-0.68l1.13-0.06
			c1.87-0.06,2.33-0.23,2.33-7.54v-9.64c0-7.32-0.45-7.43-2.33-7.54l-1.13-0.06v-0.68h10.89v3.69c1.36-2.27,3.57-4.31,8.28-4.31
			c5.56,0,10.44,2.72,10.44,9.53v9.02c0,7.32,0.45,7.49,2.33,7.54l1.14,0.06v0.68H524.14z"/>
		<path d="M228.94,294.28v-0.68l1.19-0.06c2.55-0.11,3.06-0.79,3.06-8.57v-25.53l-11.74,23.94h-3.69l-12.82-23.31v19.74
			c0,5.16,1.76,13.5,6.3,13.73l1.19,0.06v0.68h-13.1v-0.68l0.62-0.06c2.67-0.23,4.14-4.71,4.14-13.73v-14.46
			c0-7.77-1.14-8.45-3.74-8.57l-1.02-0.06v-0.68h12.82l11.35,20.82l10.38-20.82h11.8v0.68l-1.19,0.06
			c-2.55,0.11-3.06,0.79-3.06,8.57v19.63c0,7.77,0.51,8.45,3.06,8.57l1.19,0.06v0.68H228.94z"/>
		<path d="M268.53,294.28v-3.63c-1.25,2.21-3.52,4.31-8.4,4.31c-5.5,0-9.59-2.84-9.59-7.49c0-4.99,3.97-7.49,10.61-7.49
			c3.18,0,5.11,0.4,7.26,1.36v-7.09c0-3.97-1.82-6.13-5.5-6.13c-2.5,0-3.57,0.62-3.57,1.53c0,1.02,1.31,1.65,1.31,3.63
			c0,1.93-1.59,3.46-3.91,3.46c-2.61,0-4.14-1.53-4.14-3.52c0-3.4,3.8-5.84,10.55-5.84c6.41,0,12.82,2.72,12.82,9.3v9.3
			c0,7.32,0.45,7.49,2.33,7.54l1.14,0.06v0.68H268.53z M262.97,293.54c2.16,0,4.37-1.65,5.45-3.91v-7.49
			c-1.53-0.74-3.06-1.19-4.99-1.19c-2.61,0-5.05,1.48-5.05,6.75C258.37,292.06,260.42,293.54,262.97,293.54z"/>
		<path d="M296.55,294.28c-7.66,0-14.29-4.03-14.29-13.27c0-8.11,5.73-13.61,14.29-13.61c1.48,0,3.12,0.17,4.77,0.62v-3.69
			c0-7.32-0.45-7.49-2.33-7.54l-1.13-0.06v-0.68h11.01v29.95c0,7.32,0.51,7.49,2.33,7.54l1.13,0.06v0.68H296.55z M301.31,268.75
			c-1.48-0.4-2.72-0.62-3.97-0.62c-5.05,0-6.92,4.03-6.92,12.88c0,7.2,2.1,12.54,7.15,12.54h3.74V268.75z"/>
		<path d="M330.86,295.01c-10.15,0-15.03-6.41-15.03-13.78c0-9.59,6.58-13.84,13.5-13.84c8.85,0,12.82,5.05,12.82,12.48H324v0.96
			c0,6.35,0.96,12.99,8.11,12.99c4.6,0,8.06-2.16,9.19-6.58l0.79,0.17C340.9,292.23,336.93,295.01,330.86,295.01z M329.5,268.12
			c-4.37,0-5.5,3.8-5.5,11.01h10.61C334.61,272.38,333.7,268.12,329.5,268.12z"/>
		<path d="M392.8,294.28v-0.68l1.19-0.06c2.55-0.11,3.06-0.79,3.06-8.57v-25.53l-11.74,23.94h-3.69l-12.82-23.31v19.74
			c0,5.16,1.76,13.5,6.3,13.73l1.19,0.06v0.68h-13.1v-0.68l0.62-0.06c2.67-0.23,4.14-4.71,4.14-13.73v-14.46
			c0-7.77-1.14-8.45-3.74-8.57l-1.02-0.06v-0.68h12.82l11.35,20.82l10.38-20.82h11.8v0.68l-1.19,0.06
			c-2.55,0.11-3.06,0.79-3.06,8.57v19.63c0,7.77,0.51,8.45,3.06,8.57l1.19,0.06v0.68H392.8z"/>
		<path d="M428.48,295.01c-10.15,0-15.03-6.41-15.03-13.78c0-9.59,6.58-13.84,13.5-13.84c8.85,0,12.82,5.05,12.82,12.48h-18.15v0.96
			c0,6.35,0.96,12.99,8.11,12.99c4.6,0,8.06-2.16,9.19-6.58l0.79,0.17C438.52,292.23,434.55,295.01,428.48,295.01z M427.12,268.12
			c-4.37,0-5.5,3.8-5.5,11.01h10.61C432.22,272.38,431.32,268.12,427.12,268.12z"/>
	</g>
</g>
</svg>
